<?xml version="1.0" encoding="utf-8"?>
<!-- Generator: Adobe Illustrator 23.0.1, SVG Export Plug-In . SVG Version: 6.00 Build 0)  -->
<svg version="1.1" id="Capa_1" xmlns="http://www.w3.org/2000/svg" xmlns:xlink="http://www.w3.org/1999/xlink" x="0px" y="0px"
	 viewBox="0 0 438.5 438.5" style="enable-background:new 0 0 438.5 438.5;" xml:space="preserve">
<style type="text/css">
	.st0{fill:#FFFFFF;}
	.st1{fill:#000111;}
</style>
<path class="st0" d="M259,63.4h19.1V141c0,4.6,0.1,7,0.3,7.4c0.2,3,1.7,4.6,4.6,4.6c3.8,0,7.8-3,12-8.9V63.4h19.1V169h-19.2v-11.4
	c-7.8,8.6-15.1,12.8-22,12.9c-6.1,0-10.2-2.6-12.3-7.7c-1.1-3.4-1.7-8.7-1.7-15.7L259,63.4L259,63.4z"/>
<path class="st0" d="M186.7,97.6c0-11,2-19.3,6-24.8C197.9,65.6,205.3,62,215,62c9.3,0,16.8,3.6,22.3,10.9c4,5.5,6,13.8,6,24.8v37.1
	c0,11.4-2,19.7-6,24.8c-5.5,7.2-12.9,10.8-22.3,10.9c-9.7,0-17.1-3.6-22.3-10.9c-4-5.5-6-13.8-6-24.8V97.6z"/>
<path class="st0" d="M135.3,27.1l15.1,55.7L165,27.1h21.4l-25.7,84.5l0,0V169h-21.1v-57.4c-2.1-10.5-6.5-25.5-13.1-45.1l-6.6-19.7
	l-6.9-19.7L135.3,27.1z"/>
<path class="st0" d="M370.6,371.7c-1.8,8-6,15.3-12.1,20.9c-5.9,5.6-13.5,9.1-21.5,10c-26.1,2.9-65.3,4.3-117.6,4.3
	s-91.6-1.4-117.6-4.3c-8.1-0.9-15.6-4.4-21.6-10c-6.1-5.6-10.3-12.8-12.1-20.9c-3.8-16-5.7-40.7-5.7-74.2c0-32.9,1.9-57.7,5.7-74.2
	c1.7-8.1,6-15.4,12.1-21c6-5.5,13.7-9,21.8-9.9c25.9-2.8,65-4.3,117.4-4.3c52.5,0,91.7,1.4,117.6,4.3c8.1,0.9,15.7,4.4,21.7,9.9
	c6.2,5.5,10.5,12.9,12.3,21c3.6,15.8,5.4,40.5,5.4,74.2C376.3,331,374.4,355.7,370.6,371.7z"/>
<polygon points="85.7,244.7 107.9,244.7 107.9,365.4 129,365.4 129,244.7 151.9,244.7 151.9,224.7 85.7,224.7 "/>
<path d="M190.1,340.6c-4.2,5.9-8.2,8.8-12,8.8c-2.7,0-4.1-1.4-4.3-4.3c-0.2-0.4-0.3-2.9-0.3-7.4v-77.1h-18.8v82.8
	c0,7.2,0.6,12.4,1.7,15.4c1.7,5.3,5.7,8,12,8c7,0,14.3-4.3,21.7-12.8v11.4h19.1V260.7h-19.1V340.6z"/>
<path d="M264.1,259.2c-6.9,0-13.3,3.8-19.4,11.4v-46h-19.1v140.8h19.1v-10.3c6.3,7.8,12.7,11.7,19.4,11.7c7.8,0,12.8-4,15.1-12
	c1.3-4,2-10.9,2-20.8v-41.7c0-10.1-0.7-17.1-2-21.1C276.9,263.2,271.9,259.2,264.1,259.2z M262.4,335.5c0,9.3-2.8,14-8.3,14
	c-3.2,0-6.4-1.5-9.4-4.6v-64c3-3,6.2-4.6,9.4-4.6c5.5,0,8.3,4.8,8.3,14.3V335.5z"/>
<path d="M333.5,335.3c0,2,0,3.6-0.1,4.7s-0.1,1.8-0.1,2c-1.1,5-4,7.4-8.6,7.4c-6.5,0-9.7-4.9-9.7-14.6v-18.5h38v-21.7
	c0-11-2-19.2-6-24.5c-5.1-7.2-12.6-10.9-22.3-10.9s-17.3,3.6-22.8,10.9c-3.8,5.1-5.7,13.3-5.7,24.5v36.8c0,11.2,2,19.4,6,24.5
	c5.5,7.2,13.2,10.9,23.1,10.9c10.1,0,17.7-3.8,22.9-11.4c2.3-3.4,3.7-7.3,4.3-11.4c0.5-4.1,0.6-8.2,0.6-12.3v-2.6h-19.5V335.3
	L333.5,335.3L333.5,335.3z M314.9,290.9c0-9.7,3.1-14.6,9.4-14.6s9.4,4.9,9.4,14.6v9.7h-18.8V290.9z"/>
<path class="st1" d="M215,153c6.1,0,9.1-4.9,9.1-14.6V93.9c0-9.9-3-14.8-9.1-14.8s-9.1,5-9.1,14.8v44.5
	C205.9,148.2,208.9,153,215,153z"/>
</svg>
